# xmcd
#
# Track frame offsets:
#	150
#	15716
#	29757
#	46271
#	62074
#	82728
#	100180
#	112556
#	128547
#	147021
#	163279
#	176650
#	188856
#	201786
#	220018
#	234621
#	251886
#	269736
#	286965
#	302751
#	315312
#
# Disc length: 4413 seconds
#
# Revision: 0
# Processed by: cddbd v1.5.2PL0 Copyright (c) Steve Scherf et al.
# Submitted via: EasyCDDAExtractor 11.5.0.1
#
DISCID=25113b15
DTITLE=Various Artist - NCT 079
DYEAR=2005
DGENRE=Country
TTITLE0=Garth Brooks - Good Ride Cowboy
TTITLE1=Montgomery Gentry - She Don't Tell Me To
TTITLE2=Tim McGraw - My Old Friend
TTITLE3=Sara Evans - Cheatin'
TTITLE4=Brooks and Dunn - Believe
TTITLE5=Craig Morgan - I Got You
TTITLE6=Gretchen Wilson - I Don't Feel Like Loving You Today
TTITLE7=Wynonna - Attitude
TTITLE8=Brice Long - Anywhere But Here
TTITLE9=Jack Ingram - Wherever You Are
TTITLE10=Shooter Jennings - Steady At The Wheel
TTITLE11=Merle Haggard - America First
TTITLE12=Hot Apple Pie - We're Makin' Up
TTITLE13=Rockie Lynne - Lipstick
TTITLE14=Chely Wright - C'est La Vie (You Never Can Tell)
TTITLE15=Bon Jovi duet with Jennifer Nettles of Sugarland - Who Says You Can't
TTITLE15=Go Home
TTITLE16=Bering Strait - You Make Lovin' Fun
TTITLE17=Trisha Yearwood - Trying To Love You
TTITLE18=Ryan Shupe and The Rubber Band - Banjo Boy
TTITLE19=Jace Everett - Bad Things
TTITLE20=Collin Raye - I Know That's Right
EXTD=
EXTT0=
EXTT1=
EXTT2=
EXTT3=
EXTT4=
EXTT5=
EXTT6=
EXTT7=
EXTT8=
EXTT9=
EXTT10=
EXTT11=
EXTT12=
EXTT13=
EXTT14=
EXTT15=
EXTT16=
EXTT17=
EXTT18=
EXTT19=
EXTT20=
PLAYORDER=
